<?xml version="1.0" encoding="UTF-8"?>
<svg version="1.1" xmlns="http://www.w3.org/2000/svg" width="1536" height="1536">
<path d="M0 0 C506.88 0 1013.76 0 1536 0 C1536 506.88 1536 1013.76 1536 1536 C1029.12 1536 522.24 1536 0 1536 C0 1029.12 0 522.24 0 0 Z " fill="#FAF7FC" transform="translate(0,0)"/>
<path d="M0 0 C0.65871094 0.25523437 1.31742188 0.51046875 1.99609375 0.7734375 C12.7596472 5.34742318 18.62116229 14.58462174 23 25 C25.9065302 33.71959059 24.86414801 45.30960896 21.2578125 53.64453125 C15.26594598 64.86532477 6.13652736 72.58714535 -6.04101562 76.51074219 C-16.03714019 79.00728177 -27.31425158 77.60693318 -36.32421875 72.74609375 C-45.95170612 66.74730281 -53.65210993 58.88309999 -56.61328125 47.6796875 C-58.35160509 35.63433239 -57.57530658 24.18165195 -50.875 13.8125 C-39.13507395 -1.82439524 -18.15766066 -8.57548655 0 0 Z " fill="#A63CD8" transform="translate(786,494)"/>
<path d="M0 0 C6.52850132 4.89859054 12.57379191 10.64333605 16.1875 18.0625 C16.51105469 18.71347656 16.83460938 19.36445312 17.16796875 20.03515625 C21.17929484 29.50791222 19.87888833 42.03016268 16.2578125 51.38671875 C10.80311337 62.71961849 1.5957087 69.64260636 -10 74 C-20.0413701 77.19775884 -31.59245308 75.19074692 -41 71 C-44.35637023 68.98209096 -47.17155119 66.70089131 -50 64 C-50.95519531 63.10474609 -50.95519531 63.10474609 -51.9296875 62.19140625 C-59.65869487 54.21361109 -62.46901081 45.29092561 -62.5625 34.375 C-62.37381119 22.86161314 -59.12547638 14.35076686 -51 6 C-36.59245584 -6.4676479 -17.09845185 -9.93775792 0 0 Z " fill="#A63CD8" transform="translate(791,621)"/>
<path d="M0 0 C7.91380163 5.93211317 14.60546784 14.87523168 16.38671875 24.7890625 C17.27322603 39.28004694 14.98041116 49.28721148 5.86328125 60.6953125 C-0.11937455 67.3491931 -9.46654755 72.41955341 -18.421875 73.0625 C-31.01575089 73.45811197 -40.18621983 71.88802495 -50.05078125 63.4140625 C-58.34736815 55.34314277 -63.75820239 46.65998582 -63.98828125 34.7265625 C-63.48807415 22.59654024 -60.53877804 12.0999941 -51.48828125 3.4765625 C-35.86806675 -9.41210345 -17.10731797 -10.9035653 0 0 Z " fill="#A63BD9" transform="translate(686.61328125,561.2109375)"/>
<path d="M0 0 C10.40873019 6.7915119 17.15122471 15.81625484 20 28 C21.44497184 41.45934443 17.76744502 52.47434622 9.40625 63.0078125 C5.01331445 67.79445454 -0.07942243 70.45853021 -6 73 C-7.11955078 73.55107422 -7.11955078 73.55107422 -8.26171875 74.11328125 C-16.87739689 76.90323694 -28.82762366 76.2240531 -36.90625 72.25390625 C-47.79212347 65.73456785 -55.57372876 57.39456614 -59.578125 45.24609375 C-61.65333234 34.19753614 -60.60352977 23.43647117 -54.6796875 13.8671875 C-42.22543074 -4.03155308 -19.56844699 -11.30743361 0 0 Z " fill="#A63BD9" transform="translate(1003,747)"/>
<path d="M0 0 C8.07298695 6.21619995 12.65379474 13.60927405 15.25 23.375 C15.745 24.86 15.745 24.86 16.25 26.375 C17.34019709 37.79526128 14.68573278 48.03610292 7.93359375 57.34765625 C1.47282345 65.12756295 -6.234805 69.20326833 -15.75 72.375 C-27.66888363 73.28285838 -37.7114821 72.77347489 -47.56640625 65.21484375 C-56.28683517 57.61144212 -63.32194902 49.11662809 -64.171875 37.12890625 C-64.64669462 23.07052129 -61.06616894 13.1648948 -51.625 2.6875 C-37.05026139 -11.30033638 -15.99733396 -10.737341 0 0 Z " fill="#A63BD9" transform="translate(899.75,686.625)"/>
<path d="M0 0 C8.59060045 6.98207238 14.09348928 14.54789199 16.8125 25.3125 C18.09049891 38.92467444 15.42229017 49.01353515 7.06640625 59.80078125 C-0.50103917 68.23382702 -10.13371157 72.33107101 -21.296875 73.69140625 C-33.13214199 74.16665661 -43.48372242 69.46213468 -52.125 61.53515625 C-60.94587592 52.23901762 -63.7807965 41.2158974 -63.51953125 28.75 C-62.94451792 17.63780817 -57.05413745 9.74808883 -49.1875 2.3125 C-46.31533243 -0.12086419 -43.56343862 -2.20744967 -40.1875 -3.875 C-39.2284375 -4.36033203 -39.2284375 -4.36033203 -38.25 -4.85546875 C-26.02552279 -9.78693399 -10.5834522 -7.34905095 0 0 Z " fill="#A63BD9" transform="translate(1113.1875,687.6875)"/>
<path d="M0 0 C2.02156623 1.45008501 3.86850438 2.98251408 5.71875 4.64453125 C6.33492187 5.16917969 6.95109375 5.69382812 7.5859375 6.234375 C14.64707939 12.67425763 19.17691592 21.84257842 19.9375 31.390625 C20.30494824 43.40924461 16.9050933 53.9999403 8.609375 62.91015625 C4.08664889 67.12097021 -0.51569509 70.39183861 -6.28125 72.64453125 C-7.63283203 73.17626953 -7.63283203 73.17626953 -9.01171875 73.71875 C-18.65305354 76.44873369 -29.59886653 75.64151122 -38.56640625 71.25 C-49.70331808 64.6639989 -56.71631874 56.14947532 -60.28125 43.64453125 C-62.04715988 31.79409687 -60.45105508 20.66426658 -53.26171875 10.90234375 C-39.67295831 -5.13762917 -19.00530796 -11.29253743 0 0 Z " fill="#A63BD9" transform="translate(896.28125,559.35546875)"/>
<path d="M0 0 C8.50234541 6.39065178 13.46145575 14.7185469 16.390625 24.796875 C17.54027986 35.71859614 16.12072878 46.93881583 9.703125 56.109375 C8.63441708 57.36949329 7.52796274 58.59833523 6.390625 59.796875 C5.75382813 60.48523438 5.11703125 61.17359375 4.4609375 61.8828125 C-3.58816374 69.8139782 -12.98589234 73.24400382 -24.171875 73.421875 C-35.77303865 73.22432597 -44.15787152 69.12212837 -52.484375 61.0625 C-61.34258382 51.61808619 -64.04231118 41.74426902 -63.8828125 28.984375 C-62.96584495 18.29515326 -58.26295654 10.00602508 -50.47265625 2.828125 C-35.25512386 -9.70708492 -16.65012669 -10.57649557 0 0 Z " fill="#A63BD9" transform="translate(579.609375,749.203125)"/>
<path d="M0 0 C9.44780295 7.78282128 15.80884855 16.43404489 17.21875 28.90625 C17.53765388 41.13089875 14.44154853 50.70076089 6.8125 60.3125 C0.68914878 66.54016725 -5.83646977 69.95126621 -14.1875 72.3125 C-14.83847656 72.50328125 -15.48945313 72.6940625 -16.16015625 72.890625 C-27.00712301 75.14779727 -36.71806613 72.27199712 -45.9375 66.5625 C-54.55314838 60.39308036 -60.16457926 52.24857365 -62.796875 41.921875 C-64.38240282 31.33054918 -63.82875723 21.62774 -58.1875 12.3125 C-53.23637701 5.83933196 -47.57976413 -0.22357921 -40.1875 -3.875 C-39.2284375 -4.36033203 -39.2284375 -4.36033203 -38.25 -4.85546875 C-26.02552279 -9.78693399 -10.5834522 -7.34905095 0 0 Z " fill="#A63BD9" transform="translate(472.1875,687.6875)"/>
<path d="M0 0 C9.39613884 6.47449874 16.64245331 15.37632907 18.91015625 26.71484375 C19.82961656 37.43183194 18.51521552 48.16031758 12.09765625 57.08984375 C11.05646888 58.31658926 9.99407701 59.52568797 8.91015625 60.71484375 C8.4203125 61.318125 7.93046875 61.92140625 7.42578125 62.54296875 C1.27564547 69.54559859 -6.79074855 73.5246237 -16.02734375 74.2265625 C-29.29726341 74.73441289 -38.53844912 72.64263293 -48.83203125 63.9140625 C-52.30781812 60.52847771 -54.7949814 56.97468199 -57.08984375 52.71484375 C-57.50234375 51.99039063 -57.91484375 51.2659375 -58.33984375 50.51953125 C-62.44619014 42.10722442 -62.48562908 31.73710852 -60.39453125 22.71484375 C-59.47006406 20.22888156 -58.40141961 18.01829885 -57.08984375 15.71484375 C-56.67734375 14.94914063 -56.26484375 14.1834375 -55.83984375 13.39453125 C-50.96870514 5.22983869 -43.20199545 -1.4600818 -34.1875 -4.66015625 C-22.28288766 -7.06209569 -10.42195015 -6.40901233 0 0 Z " fill="#A63BD9" transform="translate(470.08984375,811.28515625)"/>
<path d="M0 0 C8.03998984 6.62636526 13.47859022 14.37718829 15.1328125 24.7578125 C16.07706322 36.19673553 15.00019438 45.96042427 8.11328125 55.578125 C-0.17453744 65.30288599 -9.26615198 70.92394693 -22.10546875 72.0390625 C-34.06489213 72.37634354 -42.68915222 69.47044719 -51.8671875 61.7578125 C-60.16998271 53.82014978 -64.82900282 44.41019962 -65.1171875 32.8828125 C-64.80315846 21.45564471 -61.53231212 11.51524417 -53.6796875 2.9453125 C-38.2718874 -11.17284794 -16.79148522 -11.97672243 0 0 Z " fill="#A63AD9" transform="translate(687.8671875,687.2421875)"/>
<path d="M0 0 C9.10825915 6.71750354 16.90200593 15.59107359 19 27 C20.06346195 37.94971937 18.70647408 48.20690886 12.1875 57.3125 C11.1468622 58.5602299 10.0842819 59.79000426 9 61 C8.48695313 61.61617187 7.97390625 62.23234375 7.4453125 62.8671875 C2.21934913 68.6932615 -5.98443245 73.38751149 -13.89428711 74.19287109 C-27.35862216 74.70142444 -37.46126193 73.82069203 -48.3125 65 C-55.97384132 57.64758374 -61.00111973 48.15248914 -61.29248047 37.51782227 C-61.40478676 25.84755524 -58.73869974 16.06723189 -51 7 C-37.42252115 -6.20163169 -16.72771115 -10.5999824 0 0 Z " fill="#A63BD9" transform="translate(1004,623)"/>
<path d="M0 0 C0.83635986 0.00757324 1.67271973 0.01514648 2.53442383 0.02294922 C13.84037523 0.32444126 21.73658135 4.72163574 29.7578125 12.5078125 C38.0222501 21.26018738 41.0227116 29.94851981 40.90234375 41.8515625 C40.16577215 51.37512204 37.04226163 59.39720326 30.625 66.4375 C30.13515625 67.04078125 29.6453125 67.6440625 29.140625 68.265625 C22.99048922 75.26825484 14.9240952 79.24727995 5.6875 79.94921875 C-7.58742519 80.45726071 -16.80346077 78.35594679 -27.11328125 69.6484375 C-35.84220223 61.11550265 -39.39057063 50.83955973 -39.75 38.8125 C-39.662906 28.49186042 -35.67816584 18.81737977 -28.375 11.4375 C-19.45744569 3.87399152 -11.72489084 -0.14885 0 0 Z " fill="#A63BD9" transform="translate(1089.375,805.5625)"/>
<path d="M0 0 C9.47906287 6.00667351 16.78640993 14.07448329 20.64453125 24.67578125 C23.07642446 36.59205797 22.13040822 47.03738706 15.94921875 57.5625 C9.93924716 66.48012992 2.12844501 72.87623065 -8.35546875 75.67578125 C-11.65924075 76.09714578 -14.90283134 76.15377731 -18.23046875 76.11328125 C-19.11524902 76.10425781 -20.0000293 76.09523438 -20.91162109 76.0859375 C-32.42378394 75.78013572 -40.08470369 71.68897923 -48.35546875 63.67578125 C-55.90338486 55.12363595 -59.13214738 43.80362819 -58.671875 32.51953125 C-57.31315239 20.3078021 -50.86083098 10.34355148 -41.35546875 2.67578125 C-28.99323689 -4.72686279 -13.2398979 -6.5736556 0 0 Z " fill="#A63AD9" transform="translate(574.35546875,621.32421875)"/>
<path d="M0 0 C5.21084005 3.0700099 8.75824137 6.88158686 10.73828125 12.61328125 C11.61737713 18.76695238 11.58043642 24.10075635 8.36328125 29.55078125 C4.17105921 34.9632745 -1.11479216 37.84486147 -7.8125 39.0859375 C-14.31083183 39.48008204 -19.09495382 37.46986448 -24.26171875 33.61328125 C-28.81216794 28.94615388 -30.554899 24.27819106 -30.69921875 17.80078125 C-30.55247694 10.7744382 -28.57275193 6.87644407 -23.640625 2.015625 C-17.07906485 -3.05018165 -7.44566871 -3.16552382 0 0 Z " fill="#CB7CF1" transform="translate(779.26171875,762.38671875)"/>
<path d="M0 0 C4.92262557 2.88602996 8.36832277 7.10127577 10.5625 12.375 C11.50386225 19.42427077 10.85382034 25.5830339 6.5625 31.375 C2.87910096 35.23567493 -1.04788298 38.07471744 -6.390625 38.74609375 C-13.78770173 38.895087 -18.84999684 38.4473433 -24.4375 33.375 C-29.13207048 28.66866368 -30.61903493 24.80380912 -30.875 18.1875 C-30.81842547 12.53633287 -30.07695764 9.22342792 -26.2578125 5.03125 C-18.58975584 -1.94569426 -9.97683581 -4.46977332 0 0 Z " fill="#CB7BF1" transform="translate(779.4375,387.625)"/>
<path d="M0 0 C4.4272315 4.4272315 6.53230141 9.03218669 6.8125 15.3125 C6.54715025 21.07058959 4.80225494 25.56397839 0.921875 29.84765625 C-4.38715502 34.6397544 -10.12201687 35.91154939 -17.08984375 35.75390625 C-22.46617913 34.84033347 -26.85107746 31.76275439 -30.1015625 27.42578125 C-31.1875 25.5625 -31.1875 25.5625 -32.6875 22.3125 C-33.0175 21.6525 -33.3475 20.9925 -33.6875 20.3125 C-34.45252556 13.5652254 -33.91198444 7.79259509 -29.6875 2.3125 C-20.41597934 -6.40804914 -10.76166983 -6.75732756 0 0 Z " fill="#CC7BF3" transform="translate(569.6875,891.6875)"/>
<path d="M0 0 C3.81569684 3.02647897 5.62519305 6.08261041 7.171875 10.72265625 C7.90890221 18.03623391 6.48365205 23.33204991 2.296875 29.47265625 C-2.2806737 34.31947252 -7.07473997 35.82840783 -13.578125 36.09765625 C-19.12946548 36.04034153 -22.63731909 34.27320014 -26.828125 30.72265625 C-31.71636235 25.44850542 -33.25817308 21.41336158 -33.0703125 14.31640625 C-32.52339661 8.45911353 -30.89119658 4.35537004 -26.515625 0.34765625 C-17.76982401 -6.37145599 -8.93379936 -5.86800797 0 0 Z " fill="#CC7BF3" transform="translate(1102.828125,580.27734375)"/>
<path d="M0 0 C4.1645337 3.21926481 7.16752562 7.44007685 8.82421875 12.41015625 C9.22211472 18.2791218 8.91711061 23.279233 5.82421875 28.41015625 C0.82949425 33.91300207 -3.98176387 37.36243428 -11.48828125 37.78515625 C-17.10794758 37.63554783 -21.58014251 35.81474544 -25.71484375 31.984375 C-30.85487099 26.16802839 -31.64086859 20.80214762 -31.484375 13.28125 C-30.80492392 6.9597748 -26.50146865 3.54444466 -21.95703125 -0.390625 C-15.71193059 -4.59511163 -6.27271289 -3.549872 0 0 Z " fill="#CC7BF3" transform="translate(887.17578125,826.58984375)"/>
<path d="M0 0 C4.74908919 3.33386061 8.95661029 7.36983088 10.8125 12.9375 C11.62764007 19.59225008 10.59382756 25.33903447 6.8125 30.9375 C0.89664333 36.72000744 -4.43415547 38.36931919 -12.5859375 38.28515625 C-18.12077932 37.54551523 -21.8646355 34.36480118 -25.5625 30.375 C-29.65302627 24.2392106 -30.16282616 18.97372963 -28.7578125 11.71875 C-27.0592676 6.26663058 -23.91988059 3.03135742 -19.1875 -0.0625 C-12.94744064 -3.04687621 -6.06603749 -3.52595678 0 0 Z " fill="#CC7BF3" transform="translate(458.1875,578.0625)"/>
<path d="M0 0 C5.19039543 2.97967145 8.81220493 7.87411478 10.6875 13.5 C11.47079775 20.01035995 10.53711698 25.13763031 6.6875 30.5 C1.75881784 35.88216865 -2.88127401 38.16794587 -10.1875 38.875 C-14.87275279 38.7140562 -18.55974814 37.30102304 -22.3125 34.5 C-27.92693191 28.33752159 -29.73596374 23.93340242 -29.65625 15.61328125 C-28.98021468 9.49055225 -25.69926883 5.53285657 -21.1875 1.5625 C-15.1447389 -2.77252427 -6.79429163 -2.97742124 0 0 Z " fill="#CC7BF3" transform="translate(992.3125,514.5)"/>
<path d="M0 0 C5.00330085 2.84163131 8.92457418 6.96122253 10.75 12.4375 C11.44444839 19.48444345 11.25955675 25.71623409 6.75 31.4375 C1.01032253 36.72678024 -3.79661547 38.87245201 -11.6171875 38.78125 C-17.26822289 38.04342936 -21.38746324 34.62981467 -25.125 30.5 C-28.82228632 25.17155795 -30.19889058 19.90942038 -29.25 13.4375 C-27.26866482 6.76616889 -23.13505995 2.92986617 -17.25 -0.5625 C-11.56978516 -2.45590495 -5.50898331 -2.48381907 0 0 Z " fill="#CC7BF3" transform="translate(1206.25,890.5625)"/>
<path d="M0 0 C5.54460255 3.15281321 10.14977175 7.69931525 12.1875 13.8125 C12.96941835 20.31139516 12.04849607 25.46563956 8.1875 30.8125 C4.55710622 34.61135753 0.43624474 38.35010934 -4.92578125 39.11328125 C-11.77471056 39.14977643 -16.36653679 37.50585915 -22.0625 33.5625 C-26.75323935 28.87176065 -27.97318307 24.83095098 -28.3125 18.375 C-28.14943674 12.72214019 -26.48688993 9.05913099 -22.8125 4.8125 C-15.84691502 -1.64340803 -9.05419613 -2.82015945 0 0 Z " fill="#CC7BF3" transform="translate(349.8125,890.1875)"/>
<path d="M0 0 C5.22470701 2.95128161 8.70156436 7.01364042 11.1875 12.4375 C12.50462006 18.75967628 11.97743929 23.49644069 9.2265625 29.28515625 C6.45162679 33.50888436 2.27983474 36.20383263 -2.1875 38.4375 C-9.17479969 39.18997843 -14.79537416 39.11660721 -20.5703125 34.86328125 C-25.03404932 30.9278611 -27.71635292 26.75536736 -28.55859375 20.82421875 C-28.7250888 14.05668453 -27.81064209 9.5218034 -23.1875 4.4375 C-16.36672176 -1.54747172 -8.51957149 -3.83380717 0 0 Z " fill="#CC7BF3" transform="translate(350.1875,640.5625)"/>
<path d="M0 0 C5.29806878 3.18283228 9.16352113 7.32421089 11.57421875 13.05859375 C12.29548816 19.25963721 12.20940159 24.79384619 8.57421875 30.05859375 C3.29405474 36.03351619 -1.37211649 38.65322727 -9.17578125 39.43359375 C-14.88423514 39.34855161 -18.92355713 36.42145349 -22.96875 32.6015625 C-27.3504612 27.73156676 -28.94605436 22.66142372 -28.734375 16.13671875 C-27.7608559 9.5808686 -24.10298508 5.26913675 -19.109375 1.1875 C-13.90794747 -2.30023215 -5.69093455 -2.20855914 0 0 Z " fill="#CC7BF3" transform="translate(671.42578125,824.94140625)"/>
<path d="M0 0 C5.00695559 2.85244743 8.48747492 7.03345439 10.6875 12.375 C11.62824452 19.30680172 11.33105898 25.041937 7.109375 30.7578125 C2.9707089 35.4649767 -1.19039188 37.95240978 -7.484375 38.59765625 C-13.94827212 38.84710194 -17.90993086 37.37714095 -22.9375 33.1875 C-27.16958361 28.17582204 -30.10860327 23.10339917 -29.6875 16.37890625 C-28.25840517 8.74218074 -23.50846378 3.76433779 -17.3125 -0.625 C-11.58405171 -2.53448276 -5.53687495 -2.53685715 0 0 Z " fill="#CC7BF3" transform="translate(1206.3125,765.625)"/>
<path d="M0 0 C4.85363672 3.01807956 8.78241848 7.7352595 10.1484375 13.3359375 C10.80067645 19.85832701 9.62063492 24.73768689 6.1484375 30.3359375 C2.37466355 34.59564947 -2.10878276 37.01846905 -7.75390625 37.671875 C-13.97829206 37.75198293 -18.08197748 37.76483787 -22.8515625 33.3359375 C-28.69196652 27.26081275 -30.35967823 23.01995677 -30.24609375 14.48046875 C-29.59791289 9.31427478 -27.56168604 5.93585935 -23.8515625 2.3359375 C-15.84491204 -3.26477366 -8.85157129 -4.25962987 0 0 Z " fill="#CC7BF3" transform="translate(885.8515625,451.6640625)"/>
<path d="M0 0 C4.07142162 3.23318776 7.90692845 6.77754705 9 12 C9.74896218 18.84765419 9.15250442 24.36273383 5 30 C-0.00773434 35.22397742 -3.86729487 37.15430332 -11.1875 37.4375 C-16.91689567 37.39283879 -20.14359243 36.53364536 -24.4140625 32.72265625 C-29.49811252 27.20032605 -31.43122938 22.13416973 -31.34375 14.6328125 C-30.60239743 8.95472578 -27.18217462 4.8412847 -23 1.125 C-15.5864454 -4.12626784 -7.94973267 -4.44249767 0 0 Z " fill="#CC7BF3" transform="translate(674,452)"/>
<path d="M0 0 C5.38045459 3.01777992 9.43224902 7.75491883 11.8125 13.4375 C13.08291117 20.40033046 11.45410297 25.47755085 7.60546875 31.30078125 C4.98324605 34.42573946 2.52967374 35.79336546 -1.1875 37.4375 C-2.1775 37.9325 -2.1775 37.9325 -3.1875 38.4375 C-9.89311338 39.2277238 -14.99679388 38.88397377 -20.53515625 34.86328125 C-25.0433327 30.9732472 -27.71717531 26.74957596 -28.55859375 20.82421875 C-28.7250888 14.05668453 -27.81064209 9.5218034 -23.1875 4.4375 C-16.36672176 -1.54747172 -8.51957149 -3.83380717 0 0 Z " fill="#CC7BF3" transform="translate(350.1875,765.5625)"/>
<path d="M0 0 C5.3938217 3.02527724 9.40652435 7.75460728 11.8125 13.4375 C13.14478511 20.64586364 10.74476219 26.45830681 6.8125 32.4375 C2.40951108 36.84048892 -2.29961322 38.72245792 -8.5 38.875 C-14.24561891 38.7665921 -17.8681884 37.16456556 -22.1875 33.4375 C-27.41136332 27.9386965 -28.7224758 22.65153227 -28.5625 15.22265625 C-27.85225302 9.94759271 -25.35480347 6.3392258 -21.40234375 2.87109375 C-14.82063302 -2.033748 -7.61994065 -3.42897329 0 0 Z " fill="#CC7BF3" transform="translate(991.1875,888.5625)"/>
<path d="M0 0 C4.67669647 2.91655798 8.024463 7.28092267 10.1484375 12.33984375 C11.00605974 18.26523379 10.25771883 24.17582756 7.1484375 29.33984375 C3.24917045 33.58759601 -0.99878493 36.94739816 -6.8046875 37.74609375 C-13.48230442 37.93597859 -18.12471962 37.77271578 -23.1953125 33.1640625 C-27.63144027 28.27804442 -30.12672477 24.54368391 -30.4140625 17.77734375 C-30.04227026 10.69372317 -27.58240328 6.72173188 -22.4140625 2.02734375 C-15.16323876 -3.74560508 -8.29256964 -3.97647111 0 0 Z " fill="#CC7BF3" transform="translate(1099.8515625,952.66015625)"/>
<path d="M0 0 C3.85630182 3.53631081 7.54291661 7.78854394 8.30078125 13.11328125 C8.34461239 21.33892508 5.81316225 27.05164794 0 33 C-4.81209472 36.60907104 -9.97366695 36.62000056 -15.80078125 36.48046875 C-21.47748664 35.62792325 -24.78263135 32.7036337 -28.3359375 28.37109375 C-32.28213081 22.78765002 -32.53882165 17.61092719 -32 11 C-29.92780526 4.39487927 -24.34368732 -0.12427297 -18.4375 -3.4375 C-11.47767534 -5.04361338 -5.96655168 -3.72095859 0 0 Z " fill="#CC7BF3" transform="translate(461,954)"/>
<path d="M0 0 C5.4688353 5.7770995 7.37029061 10.21921914 7.27734375 18.109375 C6.72671663 23.84830553 4.34646082 28.06703483 0.0625 31.875 C-6.04278014 36.11131683 -11.67765566 37.10336696 -19 36 C-24.69599129 33.77418187 -28.15505307 30.39689143 -31.0625 25.0625 C-33.50639397 19.40518143 -33.71837753 14.90127019 -32 9 C-29.5626997 3.06269027 -24.63092954 -0.76507389 -18.9375 -3.4375 C-11.76416943 -4.81111649 -6.12221923 -4.02222026 0 0 Z " fill="#CC7BF3" transform="translate(1210,643)"/>
<path d="M0 0 C6.04398805 2.75771318 10.0837218 7.16416018 12.6796875 13.3125 C13.66587484 20.05526925 12.72485435 25.78450072 8.6796875 31.3125 C3.91519863 36.5038317 -0.6402088 38.90359959 -7.6953125 39.6875 C-14.96395776 38.93557118 -19.55001819 35.67822485 -24.09375 30.09375 C-27.82580557 24.67394956 -28.19905488 19.79546673 -27.3203125 13.3125 C-24.94337375 7.38979725 -20.95378822 3.45990749 -15.49609375 0.234375 C-10.71030804 -1.79335467 -4.92542434 -1.45938499 0 0 Z " fill="#CC7BF3" transform="translate(563.3203125,513.6875)"/>
<path d="M0 0 C3.26578755 2.38503816 4.82660348 5.0559523 5.5625 9.0625 C4.86561322 12.70179764 3.56464613 14.36207826 1 17 C-2.51253146 19.34168764 -3.86469356 19.49623677 -8 19 C-11.17496188 16.90741149 -12.88460857 15.17308714 -15 12 C-15.46755969 8.99425912 -15.59128296 6.94956966 -13.94921875 4.3125 C-9.71514436 -0.8832963 -6.46653777 -2.00301935 0 0 Z " fill="#B787CF" transform="translate(868,187)"/>
<path d="M0 0 C4.04212164 2.47018545 5.67811019 3.93965709 7.0625 8.5 C6.99287744 12.39886354 6.41262199 13.98422251 4 17 C0.33476845 19.4434877 -2.73970357 19.84707648 -7 19 C-9.9375 16.5625 -9.9375 16.5625 -12 14 C-12.33 13.67 -12.66 13.34 -13 13 C-13.4225153 8.35233168 -12.80400795 5.73867726 -10 2 C-6.23124125 -0.51250583 -4.46849866 -0.53016086 0 0 Z " fill="#B686CE" transform="translate(559,1272)"/>
<path d="M0 0 C4.0865655 1.43786564 5.87904607 2.63265653 8.375 6.1875 C9.07962517 9.02318667 9.07962517 11.35181333 8.375 14.1875 C5.87904607 17.74234347 4.0865655 18.93713436 0 20.375 C-4.39020573 20.14792039 -6.19043238 19.09095497 -9.28515625 16.06640625 C-11.19561103 13.38731369 -11.61605791 11.41676641 -11.30859375 8.16015625 C-9.47219858 2.86084446 -5.41210767 0.2799366 0 0 Z " fill="#B685CE" transform="translate(235.625,1086.8125)"/>
<path d="M0 0 C3.15306544 2.88471945 4.74930027 4.79664128 5.625 9 C4.75004681 13.19977529 2.99012644 14.93868007 0 18 C-2.85324437 19.42662219 -4.83454549 19.31033868 -8 19 C-10.69990662 17.20006226 -12.5418865 15.916227 -14 13 C-14.57884232 5.93812375 -14.57884232 5.93812375 -12.1875 2.0625 C-8.25451005 -1.64574767 -5.0422825 -1.30403858 0 0 Z " fill="#B686CE" transform="translate(334,377)"/>
<path d="M0 0 C2.86830829 2.01391859 4.61592935 3.45434983 5.48046875 6.93359375 C5.75669245 10.88284615 5.25523948 12.63647711 2.9375 15.9375 C-0.67712622 18.47542905 -2.56925049 19.2291767 -7 19 C-9.94755751 17.46589112 -12.03232612 15.67742135 -14 13 C-14.76193644 9.44429661 -14.86519282 7.40830657 -12.9296875 4.2578125 C-8.73982712 -0.98578523 -6.47341918 -1.53606557 0 0 Z " fill="#B686CE" transform="translate(453,1211)"/>
<path d="M0 0 C3.41195911 3.04898474 4.78991098 5.01958455 5.75 9.5 C4.82825173 13.80149191 3.38538781 15.301664 -0.0625 17.89453125 C-2.95889416 19.54711098 -4.75233724 19.70601364 -8 19 C-10.69990662 17.20006226 -12.5418865 15.916227 -14 13 C-14.70153846 5.86769231 -14.70153846 5.86769231 -11.625 2.0625 C-7.33714074 -1.30653228 -5.35559648 -1.36159233 0 0 Z " fill="#B685CE" transform="translate(1309,1088)"/>
<path d="M0 0 C3.34664567 2.42097772 4.69586639 4.08759917 6 8 C6 11.65923696 5.24243223 13.13896577 3 16 C0.68162542 18.31837458 -0.62761069 18.93523664 -3.875 19.5 C-8.2394451 18.80168878 -9.85406918 17.07276963 -13 14 C-14.42662219 11.14675563 -14.31033868 9.16545451 -14 6 C-10.25522988 0.38284483 -6.73678699 -1.13570355 0 0 Z " fill="#B685CE" transform="translate(1094,1086)"/>
<path d="M0 0 C2.92937654 1.81310142 5.43647949 3.87295899 7 7 C7.43023798 10.87214182 7.31669086 12.52496371 5.125 15.8125 C2.22424254 18.79857385 1.43881175 18.95683819 -2.8125 19.375 C-6.23041924 19.31907041 -6.97465048 19.0177986 -9.9375 16.9375 C-12.44488346 13.3663781 -13.15331912 11.36959504 -13 7 C-9.83292036 1.4482957 -6.34307041 -0.73189274 0 0 Z " fill="#B686CE" transform="translate(559,1022)"/>
<path d="M0 0 C2.86830829 2.01391859 4.61592935 3.45434983 5.48046875 6.93359375 C5.75669245 10.88284615 5.25523948 12.63647711 2.9375 15.9375 C-0.6336219 18.44488346 -2.63040496 19.15331912 -7 19 C-10.02727138 17.2730331 -12.41976665 15.16046671 -14 12 C-14.40417552 9.03604618 -14.56382171 6.91095074 -12.953125 4.30859375 C-8.66744425 -0.92245776 -6.57621564 -1.56045795 0 0 Z " fill="#B685CE" transform="translate(880,1334)"/>
<path d="M0 0 C4.92293178 0.4842228 6.64569948 1.59028719 9.8125 5.375 C10.61639864 8.55039964 10.56629649 11.19294306 9.8125 14.375 C7.8250694 17.4182531 6.49208873 18.99573803 2.875 19.8125 C-0.96476765 20.04521319 -2.82461804 19.60662678 -6.125 17.5 C-8.76505824 14.77993999 -9.13113945 13.87285154 -9.5625 10.0625 C-9.09536625 5.46901813 -7.66709782 4.26052015 -4.1875 1.375 C-3.1875 0.375 -3.1875 0.375 0 0 Z " fill="#B685CE" transform="translate(982.1875,1146.625)"/>
<path d="M0 0 C3.94875513 2.45865885 5.66872408 3.98776803 7.125 8.4375 C6.97177911 12.80429526 5.76736304 14.67916436 3 18 C-0.22878519 19.6143926 -3.50903682 19.5818272 -7 19 C-10.59385281 16.47665654 -11.76154966 14.72859825 -13.125 10.5625 C-12.95278418 5.65434903 -11.46551473 4.38492136 -8 1 C-5.09704195 -0.45147903 -3.22738221 -0.37239025 0 0 Z " fill="#B685CE" transform="translate(559,1147)"/>
<path d="M0 0 C4.92293178 0.4842228 6.64569948 1.59028719 9.8125 5.375 C10.61639864 8.55039964 10.56629649 11.19294306 9.8125 14.375 C7.8250694 17.4182531 6.49208873 18.99573803 2.875 19.8125 C-0.96476765 20.04521319 -2.82461804 19.60662678 -6.125 17.5 C-8.76505824 14.77993999 -9.13113945 13.87285154 -9.5625 10.0625 C-9.09536625 5.46901813 -7.66709782 4.26052015 -4.1875 1.375 C-3.1875 0.375 -3.1875 0.375 0 0 Z " fill="#B685CE" transform="translate(341.1875,1023.625)"/>
<path d="M0 0 C3.94875513 2.45865885 5.66872408 3.98776803 7.125 8.4375 C6.97177911 12.80429526 5.76736304 14.67916436 3 18 C-0.22878519 19.6143926 -3.50903682 19.5818272 -7 19 C-10.59385281 16.47665654 -11.76154966 14.72859825 -13.125 10.5625 C-12.95278418 5.65434903 -11.46551473 4.38492136 -8 1 C-5.09704195 -0.45147903 -3.22738221 -0.37239025 0 0 Z " fill="#B685CE" transform="translate(866,311)"/>
<path d="M0 0 C2.80732192 2.01394833 4.62383309 3.49836596 5.484375 6.93359375 C5.75314763 10.88305824 5.25568624 12.63584081 2.9375 15.9375 C-0.6336219 18.44488346 -2.63040496 19.15331912 -7 19 C-10.02727138 17.2730331 -12.41976665 15.16046671 -14 12 C-14.40203796 9.05172163 -14.54942715 6.91854037 -12.98828125 4.30859375 C-8.99406501 -0.66918324 -6.10639138 -1.70978959 0 0 Z " fill="#B685CE" transform="translate(1094,1211)"/>
<path d="M0 0 C2.86830829 2.01391859 4.61592935 3.45434983 5.48046875 6.93359375 C5.75669245 10.88284615 5.25523948 12.63647711 2.9375 15.9375 C-0.57823396 18.40599406 -2.71383323 19 -7 19 C-9.90900097 17.77175515 -11.46552692 16.73808187 -13.3125 14.1875 C-14.25846855 11.17760008 -14.44072275 9.14801964 -14 6 C-10.13044131 -0.1999249 -7.1275397 -1.69128061 0 0 Z " fill="#B685CE" transform="translate(1189,377)"/>
<path d="M0 0 C2.64647134 0.60283111 3.7210839 1.19728738 5.54296875 3.17578125 C7.60086071 6.87998678 8.27923019 8.41672634 7.41796875 12.55078125 C5.56905386 15.46690069 3.55802743 17.98075191 0.41796875 19.55078125 C-3.45417307 19.98101923 -5.10699496 19.86747211 -8.39453125 17.67578125 C-11.39357179 14.76242758 -11.54393269 14.01558364 -11.89453125 9.73828125 C-11.82375165 6.74920416 -11.4935748 5.35778536 -10.20703125 2.55078125 C-6.74575327 -0.08638292 -4.28082839 -0.22131314 0 0 Z " fill="#B685CE" transform="translate(665.58203125,1333.44921875)"/>
<path d="M0 0 C3.69059994 0.87426509 5.13063077 2.36922768 7.16015625 5.51171875 C7.79480821 8.32232027 7.79055099 10.70049896 7.16015625 13.51171875 C5.36651714 16.32175335 4.1413469 18.02112343 1.16015625 19.51171875 C-2.15234375 19.88671875 -2.15234375 19.88671875 -5.83984375 19.51171875 C-9.41497527 16.55834923 -11.58348709 14.39166756 -12.21484375 9.76171875 C-11.81373148 6.28541238 -10.92622175 4.24227363 -8.53125 1.65625 C-5.75515258 -0.22226396 -3.27865494 -0.24630964 0 0 Z " fill="#B584CE" transform="translate(877.83984375,1208.48828125)"/>
<path d="M0 0 C3.47924392 0.8645394 4.91967516 2.61216046 6.93359375 5.48046875 C7.99609375 8.91796875 7.99609375 8.91796875 7.93359375 12.48046875 C4.99688489 17.94882318 4.99688489 17.94882318 1.93359375 19.48046875 C-5.00904049 20.16335081 -5.00904049 20.16335081 -9.06640625 17.54296875 C-11.39838638 13.97212418 -11.8090819 11.83540856 -11.54296875 7.640625 C-10.19376901 1.52499012 -5.72845016 -0.40066665 0 0 Z " fill="#B585CE" transform="translate(665.06640625,958.51953125)"/>
<path d="M0 0 C3.49406769 1.66762322 4.82670681 2.74006022 7 6 C7.23287209 10.21498479 6.6340287 13.91686764 4.5 17.5625 C0.69464211 19.75058079 -2.72640426 19.8592817 -7 19 C-10.0432531 17.0125694 -11.62073803 15.67958873 -12.4375 12.0625 C-12.67021319 8.22273235 -12.23162678 6.36288196 -10.125 3.0625 C-6.7586549 -0.20483495 -4.63724366 -0.36370538 0 0 Z " fill="#B585CE" transform="translate(1307,463)"/>
<path d="M0 0 C3.14249107 2.02952548 4.63745366 3.46955631 5.51171875 7.16015625 C5.85314771 11.70495507 5.43223898 13.48342171 2.4375 17.0625 C-1.61549157 19.34691343 -3.437362 19.97770814 -8 19 C-11.63275659 16.20557186 -13.72414715 13.37926424 -14.625 8.875 C-13.85587772 5.33703751 -12.50522717 3.57891032 -10 1 C-6.76584084 -0.61707958 -3.49624735 -0.56822376 0 0 Z " fill="#B685CE" transform="translate(453,462)"/>
<path d="M0 0 C3.03978021 0.68164768 4.80055419 2.23591662 6.93359375 4.43359375 C8.34360039 7.25360702 8.17907826 9.3036663 7.93359375 12.43359375 C6.67255476 15.20787952 5.62269461 16.9167681 3.18359375 18.74609375 C-0.12852457 19.7581299 -2.62079851 19.85673856 -6.06640625 19.43359375 C-9.14145261 17.40537168 -10.73222254 15.93606199 -11.546875 12.2734375 C-11.80598207 8.07870408 -11.39856669 5.94221442 -9.06640625 2.37109375 C-5.72174711 0.21100139 -3.89742861 -0.24312882 0 0 Z " fill="#B585CE" transform="translate(972.06640625,249.56640625)"/>
<path d="M0 0 C2.75329021 1.79562405 4.52627461 3.05254922 6 6 C6.39447548 10.18144011 6.45035186 12.30946048 4.125 15.875 C1.22628658 18.77371342 0.37180992 18.95733329 -3.8125 19.4375 C-7.5201344 19.38347254 -7.95596336 19.03761463 -11 16.4375 C-13.31814592 12.45318669 -13.74130123 10.53017418 -13 6 C-9.30920537 0.34078157 -6.6962915 -0.56748233 0 0 Z " fill="#B584CD" transform="translate(761,248)"/>
<path d="M0 0 C2.74483673 1.24765306 4.47294058 2.35315435 6.375 4.6875 C7.34722353 8.28472707 7.10641347 11.44783044 6 15 C3.86439595 17.58861097 2.36385138 18.71069819 -0.93359375 19.41015625 C-4.83030806 19.69743765 -6.65840618 19.22061268 -10 17.0625 C-12.32353289 13.50459026 -12.79544168 11.34734473 -12.55078125 7.16015625 C-11.92326434 4.69904381 -11.22724996 3.65290827 -9.375 1.9375 C-5.70826804 -0.16747575 -4.1309183 -0.70313503 0 0 Z " fill="#B584CE" transform="translate(773,1270)"/>
<path d="M0 0 C3.14249107 2.02952548 4.63745366 3.46955631 5.51171875 7.16015625 C5.75802839 10.43881119 5.73398271 12.91530883 3.85546875 15.69140625 C1.43005003 17.93763837 -0.79056388 18.95636748 -4 19.625 C-8.19977529 18.75004681 -9.93868007 16.99012644 -13 14 C-14.42662219 11.14675563 -14.31033868 9.16545451 -14 6 C-10.24003519 0.36005278 -6.75040159 -1.0971016 0 0 Z " fill="#B584CE" transform="translate(453,1086)"/>
<path d="M0 0 C2.46111244 0.62751691 3.50724798 1.32353129 5.22265625 3.17578125 C7.35084509 6.88294891 8.02833527 8.38352196 7.16015625 12.55078125 C5.31124136 15.46690069 3.30021493 17.98075191 0.16015625 19.55078125 C-3.71198557 19.98101923 -5.36480746 19.86747211 -8.65234375 17.67578125 C-11.6384176 14.77502379 -11.79668194 13.989593 -12.21484375 9.73828125 C-12.14775486 6.38993561 -11.81923122 5.51886507 -9.90234375 2.55078125 C-6.34443401 0.22724836 -4.18718848 -0.24466043 0 0 Z " fill="#B585CE" transform="translate(772.83984375,1020.44921875)"/>
<path d="M0 0 C3.03978021 0.68164768 4.80055419 2.23591662 6.93359375 4.43359375 C8.34360039 7.25360702 8.17907826 9.3036663 7.93359375 12.43359375 C6.65670529 15.24274836 5.62259558 16.93466139 3.12109375 18.74609375 C0.16726451 19.67444008 -1.98218825 19.8112531 -5.06640625 19.43359375 C-7.76631287 17.63365601 -9.60829275 16.34982075 -11.06640625 13.43359375 C-11.75212054 6.46216518 -11.75212054 6.46216518 -9.06640625 2.43359375 C-5.71397384 0.19863881 -3.9372435 -0.24561254 0 0 Z " fill="#B584CE" transform="translate(1306.06640625,962.56640625)"/>
<path d="M0 0 C3.69059994 0.87426509 5.13063077 2.36922768 7.16015625 5.51171875 C7.79480821 8.32232027 7.79055099 10.70049896 7.16015625 13.51171875 C5.36651714 16.32175335 4.1413469 18.02112343 1.16015625 19.51171875 C-2.15234375 19.88671875 -2.15234375 19.88671875 -5.83984375 19.51171875 C-9.41497527 16.55834923 -11.58348709 14.39166756 -12.21484375 9.76171875 C-11.81373148 6.28541238 -10.92622175 4.24227363 -8.53125 1.65625 C-5.75515258 -0.22226396 -3.27865494 -0.24630964 0 0 Z " fill="#B584CE" transform="translate(236.83984375,962.48828125)"/>
<path d="M0 0 C3.4375 2 3.4375 2 6 5 C6.74640732 7.82609184 6.68717509 10.16540277 6 13 C4.20636089 15.8100346 2.98119065 17.50940468 0 19 C-3.91093991 19.3689566 -6.33546589 19.33226705 -9.875 17.5625 C-12.4860565 14.41387305 -12.95903508 12.21521594 -13.2109375 8.19140625 C-12.88957522 4.85280918 -11.42147504 3.21392004 -9 1 C-5.85088521 -0.57455739 -3.47991184 -0.34799118 0 0 Z " fill="#B584CD" transform="translate(879,959)"/>
<path d="M0 0 C2.75329021 1.79562405 4.52627461 3.05254922 6 6 C6.39447548 10.18144011 6.45035186 12.30946048 4.125 15.875 C1.39955109 18.60044891 0.56499391 18.94669869 -3.3125 19.3125 C-7.57536111 18.95124058 -9.01992054 17.98007946 -12 15 C-13.55024464 11.89951072 -13.28992015 9.42105782 -13 6 C-9.30920537 0.34078157 -6.6962915 -0.56748233 0 0 Z " fill="#B584CD" transform="translate(1308,713)"/>
<path d="M0 0 C3.4375 2 3.4375 2 6 5 C6.74640732 7.82609184 6.68717509 10.16540277 6 13 C4.20636089 15.8100346 2.98119065 17.50940468 0 19 C-3.91093991 19.3689566 -6.33546589 19.33226705 -9.875 17.5625 C-12.4860565 14.41387305 -12.95903508 12.21521594 -13.2109375 8.19140625 C-12.88957522 4.85280918 -11.42147504 3.21392004 -9 1 C-5.85088521 -0.57455739 -3.47991184 -0.34799118 0 0 Z " fill="#B584CD" transform="translate(238,713)"/>
<path d="M0 0 C3.14249107 2.02952548 4.63745366 3.46955631 5.51171875 7.16015625 C5.75802839 10.43881119 5.73398271 12.91530883 3.85546875 15.69140625 C1.37874153 17.98515626 -0.7564027 18.96022901 -4.0625 19.5 C-7.38089948 18.93516605 -9.31480682 18.01389488 -12 16 C-14.4915904 12.2626144 -14.45793285 10.42668417 -14 6 C-10.30130834 0.32867279 -6.71796532 -1.09182993 0 0 Z " fill="#B584CE" transform="translate(346,525)"/>
<path d="M0 0 C3.14249107 2.02952548 4.63745366 3.46955631 5.51171875 7.16015625 C5.75802839 10.43881119 5.73398271 12.91530883 3.85546875 15.69140625 C1.43005003 17.93763837 -0.79056388 18.95636748 -4 19.625 C-8.19977529 18.75004681 -9.93868007 16.99012644 -13 14 C-14.42662219 11.14675563 -14.31033868 9.16545451 -14 6 C-10.24003519 0.36005278 -6.75040159 -1.0971016 0 0 Z " fill="#B585CE" transform="translate(1094,462)"/>
<path d="M0 0 C3.03978021 0.68164768 4.80055419 2.23591662 6.93359375 4.43359375 C8.34360039 7.25360702 8.17907826 9.3036663 7.93359375 12.43359375 C6.65670529 15.24274836 5.62259558 16.93466139 3.12109375 18.74609375 C0.16726451 19.67444008 -1.98218825 19.8112531 -5.06640625 19.43359375 C-7.76631287 17.63365601 -9.60829275 16.34982075 -11.06640625 13.43359375 C-11.75212054 6.46216518 -11.75212054 6.46216518 -9.06640625 2.43359375 C-5.71397384 0.19863881 -3.9372435 -0.24561254 0 0 Z " fill="#B584CE" transform="translate(545.06640625,374.56640625)"/>
<path d="M0 0 C3.49406769 1.66762322 4.82670681 2.74006022 7 6 C7.32399838 10.51105433 6.78910894 14.01959192 3.9375 17.5625 C0.12224384 19.42954025 -2.83599701 19.94025874 -7 19 C-10.14249107 16.97047452 -11.63745366 15.53044369 -12.51171875 11.83984375 C-12.75802839 8.56118881 -12.73398271 6.08469117 -10.85546875 3.30859375 C-7.41175137 0.11929349 -4.55221788 -0.7748456 0 0 Z " fill="#B584CE" transform="translate(1080,313)"/>
<path d="M0 0 C2.75329021 1.79562405 4.52627461 3.05254922 6 6 C6.39447548 10.18144011 6.45035186 12.30946048 4.125 15.875 C1.39955109 18.60044891 0.56499391 18.94669869 -3.3125 19.3125 C-7.57536111 18.95124058 -9.01992054 17.98007946 -12 15 C-13.55024464 11.89951072 -13.28992015 9.42105782 -13 6 C-9.30920537 0.34078157 -6.6962915 -0.56748233 0 0 Z " fill="#B584CD" transform="translate(761,123)"/>
<path d="M0 0 C3.24812693 0.84648156 4.88992576 2.9648036 6.93359375 5.50390625 C7.26359375 5.83390625 7.59359375 6.16390625 7.93359375 6.50390625 C8.54551644 11.76644134 7.17868398 14.39982155 3.93359375 18.50390625 C0.78447896 20.07846364 -1.58649441 19.85189743 -5.06640625 19.50390625 C-8.50390625 17.56640625 -8.50390625 17.56640625 -11.06640625 14.50390625 C-11.87030489 11.32850661 -11.82020274 8.68596319 -11.06640625 5.50390625 C-8.08633833 0.94067725 -5.26609556 -0.30859917 0 0 Z " fill="#B584CE" transform="translate(772.06640625,1394.49609375)"/>
<path d="M0 0 C4.92293178 0.4842228 6.64569948 1.59028719 9.8125 5.375 C10.67400218 8.57238728 10.67400218 11.17761272 9.8125 14.375 C6.77627604 18.0036579 4.9052625 19.18328728 0.25 20 C-4.04657207 19.21880508 -5.47752083 17.72262132 -8.1875 14.375 C-9.63180855 11.48638291 -9.56438506 9.57852299 -9.1875 6.375 C-6.75 3.5625 -6.75 3.5625 -4.1875 1.375 C-3.1875 0.375 -3.1875 0.375 0 0 Z " fill="#B584CE" transform="translate(982.1875,1271.625)"/>
<path d="M0 0 C3.03978021 0.68164768 4.80055419 2.23591662 6.93359375 4.43359375 C8.38507278 7.3365518 8.305984 9.20621154 7.93359375 12.43359375 C6.12049233 15.36297029 4.06063476 17.87007324 0.93359375 19.43359375 C-2.93854807 19.86383173 -4.59136996 19.75028461 -7.87890625 17.55859375 C-10.8649801 14.65783629 -11.02324444 13.8724055 -11.44140625 9.62109375 C-11.37967942 6.23229105 -11.05507416 5.41659561 -9.06640625 2.43359375 C-5.71397384 0.19863881 -3.9372435 -0.24561254 0 0 Z " fill="#B584CE" transform="translate(665.06640625,1208.56640625)"/>
<path d="M0 0 C4.92293178 0.4842228 6.64569948 1.59028719 9.8125 5.375 C10.67400218 8.57238728 10.67400218 11.17761272 9.8125 14.375 C6.77627604 18.0036579 4.9052625 19.18328728 0.25 20 C-4.04657207 19.21880508 -5.47752083 17.72262132 -8.1875 14.375 C-9.63180855 11.48638291 -9.56438506 9.57852299 -9.1875 6.375 C-6.75 3.5625 -6.75 3.5625 -4.1875 1.375 C-3.1875 0.375 -3.1875 0.375 0 0 Z " fill="#B584CE" transform="translate(341.1875,1148.625)"/>
<path d="M0 0 C2.92937654 1.81310142 5.43647949 3.87295899 7 7 C7.43023798 10.87214182 7.31669086 12.52496371 5.125 15.8125 C2.22424254 18.79857385 1.43881175 18.95683819 -2.8125 19.375 C-6.2013027 19.31327317 -7.01699814 18.98866791 -10 17 C-12.23495494 13.64756759 -12.67920629 11.87083725 -12.43359375 7.93359375 C-11.75194607 4.89381354 -10.19767713 3.13303956 -8 1 C-5.09704195 -0.45147903 -3.22738221 -0.37239025 0 0 Z " fill="#B584CE" transform="translate(773,1145)"/>
<path d="M0 0 C2.74483673 1.24765306 4.47294058 2.35315435 6.375 4.6875 C7.34722353 8.28472707 7.10641347 11.44783044 6 15 C3.86439595 17.58861097 2.36385138 18.71069819 -0.93359375 19.41015625 C-4.86979124 19.7003485 -6.65111691 19.23258873 -10 17 C-12.23495494 13.64756759 -12.67920629 11.87083725 -12.43359375 7.93359375 C-11.75194607 4.89381354 -10.19767713 3.13303956 -8 1 C-5.17998673 -0.41000664 -3.12992745 -0.24548451 0 0 Z " fill="#B584CE" transform="translate(1200,1024)"/>
<path d="M0 0 C2.5 1.5 2.5 1.5 4 4 C4.93057474 8.74149985 4.66290063 11.95218933 2.0625 16.0625 C-2.04781067 18.66290063 -5.25850015 18.93057474 -10 18 C-12.73507364 16.35895582 -13.60454823 15.15442442 -14.62890625 12.1640625 C-15.27733152 9.11471123 -15.53328762 6.97629426 -14.0078125 4.18359375 C-9.6907229 -1.11697484 -6.46705653 -1.59759302 0 0 Z " fill="#B584CE" transform="translate(988,1023)"/>
<path d="M0 0 C3.03978021 0.68164768 4.80055419 2.23591662 6.93359375 4.43359375 C8.38507278 7.3365518 8.305984 9.20621154 7.93359375 12.43359375 C6.12049233 15.36297029 4.06063476 17.87007324 0.93359375 19.43359375 C-2.93854807 19.86383173 -4.59136996 19.75028461 -7.87890625 17.55859375 C-10.8649801 14.65783629 -11.02324444 13.8724055 -11.44140625 9.62109375 C-11.37967942 6.23229105 -11.05507416 5.41659561 -9.06640625 2.43359375 C-5.71397384 0.19863881 -3.9372435 -0.24561254 0 0 Z " fill="#B584CE" transform="translate(772.06640625,895.56640625)"/>
<path d="M0 0 C3.03978021 0.68164768 4.80055419 2.23591662 6.93359375 4.43359375 C8.36663439 7.29967504 8.2400353 9.24660158 7.93359375 12.43359375 C6.49609375 15.74609375 6.49609375 15.74609375 3.93359375 18.43359375 C0.87253218 19.51296061 -1.84270922 19.7956132 -5.06640625 19.43359375 C-7.98784042 17.66856061 -9.54564442 16.4751174 -11.06640625 13.43359375 C-11.75212054 6.46216518 -11.75212054 6.46216518 -9.06640625 2.43359375 C-5.71397384 0.19863881 -3.9372435 -0.24561254 0 0 Z " fill="#B584CD" transform="translate(1306.06640625,837.56640625)"/>
<path d="M0 0 C3.4375 2 3.4375 2 6 5 C6.74640732 7.82609184 6.68717509 10.16540277 6 13 C4.20636089 15.8100346 2.98119065 17.50940468 0 19 C-3.3125 19.375 -3.3125 19.375 -7 19 C-10.60521591 16.02177816 -12.79128467 13.87843794 -13.3125 9.1875 C-12.92835642 5.2692355 -11.70743683 3.78706733 -9 1 C-5.85088521 -0.57455739 -3.47991184 -0.34799118 0 0 Z " fill="#B584CD" transform="translate(238,838)"/>
<path d="M0 0 C2.75329021 1.79562405 4.52627461 3.05254922 6 6 C6.68571429 12.97142857 6.68571429 12.97142857 4 17 C0.65111691 19.23258873 -1.13020876 19.7003485 -5.06640625 19.41015625 C-8.36385138 18.71069819 -9.86439595 17.58861097 -12 15 C-13.35040685 10.98232993 -13.44538492 8.02438532 -11.75 4.125 C-8.20119974 -0.18425746 -5.38342014 -0.55690553 0 0 Z " fill="#B584CD" transform="translate(238,588)"/>
<path d="M0 0 C2.86830829 2.01391859 4.61592935 3.45434983 5.48046875 6.93359375 C5.75226702 10.81957437 5.20941022 12.67575192 3.0625 16 C-0.49540974 18.32353289 -2.65265527 18.79544168 -6.83984375 18.55078125 C-9.30095619 17.92326434 -10.34709173 17.22724996 -12.0625 15.375 C-14.16747575 11.70826804 -14.70313503 10.1309183 -14 6 C-12.73711341 3.22164951 -11.6477829 1.50897228 -9.25 -0.375 C-5.81167782 -1.33008949 -3.43602312 -0.90421661 0 0 Z " fill="#B584CE" transform="translate(239,464)"/>
<path d="M0 0 C3.03978021 0.68164768 4.80055419 2.23591662 6.93359375 4.43359375 C8.38507278 7.3365518 8.305984 9.20621154 7.93359375 12.43359375 C6.12049233 15.36297029 4.06063476 17.87007324 0.93359375 19.43359375 C-2.93854807 19.86383173 -4.59136996 19.75028461 -7.87890625 17.55859375 C-10.8649801 14.65783629 -11.02324444 13.8724055 -11.44140625 9.62109375 C-11.37967942 6.23229105 -11.05507416 5.41659561 -9.06640625 2.43359375 C-5.71397384 0.19863881 -3.9372435 -0.24561254 0 0 Z " fill="#B584CE" transform="translate(972.06640625,374.56640625)"/>
<path d="M0 0 C2.74483673 1.24765306 4.47294058 2.35315435 6.375 4.6875 C7.34722353 8.28472707 7.10641347 11.44783044 6 15 C3.86439595 17.58861097 2.36385138 18.71069819 -0.93359375 19.41015625 C-4.83030806 19.69743765 -6.65840618 19.22061268 -10 17.0625 C-12.32353289 13.50459026 -12.79544168 11.34734473 -12.55078125 7.16015625 C-11.92326434 4.69904381 -11.22724996 3.65290827 -9.375 1.9375 C-5.70826804 -0.16747575 -4.1309183 -0.70313503 0 0 Z " fill="#B584CE" transform="translate(439,313)"/>
<path d="M0 0 C3.49406769 1.66762322 4.82670681 2.74006022 7 6 C7.58466608 10.42675745 7.27147208 12.51835598 5.0625 16.4375 C1.4989786 19.41922199 -0.3039128 19.907649 -4.83984375 19.58203125 C-7 19 -7 19 -10.0625 16.4375 C-12.30625709 12.45664064 -12.73540053 10.49411434 -12 6 C-8.56065403 0.72633618 -6.24498522 -0.48980276 0 0 Z " fill="#B584CE" transform="translate(653,311)"/>
<path d="M0 0 C2.875 2.4375 2.875 2.4375 5 5 C5.33 5.33 5.66 5.66 6 6 C6.61192269 11.26253509 5.24509023 13.8959153 2 18 C-1.24898288 19.62449144 -4.50033527 19.68922651 -8 19 C-11.10136768 16.41552694 -12.52536871 14.85867064 -13.51171875 10.99609375 C-13.6875 8.9375 -13.6875 8.9375 -13 5 C-9.09519458 0.42852049 -5.96604812 -1.08473602 0 0 Z " fill="#B584CD" transform="translate(1201,1149)"/>
<path d="M0 0 C3.4375 2 3.4375 2 6 5 C6.74640732 7.82609184 6.68717509 10.16540277 6 13 C4.20636089 15.8100346 2.98119065 17.50940468 0 19 C-3.3125 19.375 -3.3125 19.375 -7 19 C-10.60521591 16.02177816 -12.79128467 13.87843794 -13.3125 9.1875 C-12.92835642 5.2692355 -11.70743683 3.78706733 -9 1 C-5.85088521 -0.57455739 -3.47991184 -0.34799118 0 0 Z " fill="#B584CD" transform="translate(879,1084)"/>
<path d="M0 0 C3.47924392 0.8645394 4.91967516 2.61216046 6.93359375 5.48046875 C8.0596849 9.42178777 8.34807047 11.49881337 6.74609375 15.29296875 C4.04796796 18.54932746 2.20693809 19.28669896 -1.94140625 19.91796875 C-5.31402399 19.44580227 -7.40473301 18.50305399 -9.921875 16.171875 C-11.80038896 13.39577758 -11.82443464 10.91927994 -11.578125 7.640625 C-10.13451965 1.54662685 -5.76398019 -0.40315173 0 0 Z " fill="#B584CE" transform="translate(665.06640625,1083.51953125)"/>
<path d="M0 0 C3.49406769 1.66762322 4.82670681 2.74006022 7 6 C7.46797583 10.21178243 7.46565795 12.28599114 5.125 15.875 C2.22628658 18.77371342 1.37180992 18.95733329 -2.8125 19.4375 C-6.5201344 19.38347254 -6.95596336 19.03761463 -10 16.4375 C-12.31814592 12.45318669 -12.74130123 10.53017418 -12 6 C-8.56065403 0.72633618 -6.24498522 -0.48980276 0 0 Z " fill="#B584CD" transform="translate(1307,588)"/>
<path d="M0 0 C3.03978021 0.68164768 4.80055419 2.23591662 6.93359375 4.43359375 C8.34360039 7.25360702 8.17907826 9.3036663 7.93359375 12.43359375 C6.65670529 15.24274836 5.62259558 16.93466139 3.12109375 18.74609375 C0.16726451 19.67444008 -1.98218825 19.8112531 -5.06640625 19.43359375 C-7.76631287 17.63365601 -9.60829275 16.34982075 -11.06640625 13.43359375 C-11.75212054 6.46216518 -11.75212054 6.46216518 -9.06640625 2.43359375 C-5.71397384 0.19863881 -3.9372435 -0.24561254 0 0 Z " fill="#B584CD" transform="translate(1199.06640625,524.56640625)"/>
<path d="M0 0 C3.03978021 0.68164768 4.80055419 2.23591662 6.93359375 4.43359375 C8.34360039 7.25360702 8.17907826 9.3036663 7.93359375 12.43359375 C6.65670529 15.24274836 5.62259558 16.93466139 3.12109375 18.74609375 C0.16726451 19.67444008 -1.98218825 19.8112531 -5.06640625 19.43359375 C-7.76631287 17.63365601 -9.60829275 16.34982075 -11.06640625 13.43359375 C-11.75212054 6.46216518 -11.75212054 6.46216518 -9.06640625 2.43359375 C-5.71397384 0.19863881 -3.9372435 -0.24561254 0 0 Z " fill="#B584CD" transform="translate(545.06640625,249.56640625)"/>
<path d="M0 0 C3.66262449 0.81465246 5.13193418 2.40542239 7.16015625 5.48046875 C7.98880994 10.03806403 7.51911041 11.89308922 5.09765625 15.85546875 C1.57181208 19.00622311 -0.13231245 19.64564529 -4.83984375 19.48046875 C-10.48163479 16.55509562 -10.48163479 16.55509562 -11.83984375 12.48046875 C-12.31466806 8.20704996 -12.29688693 6.17340519 -9.90234375 2.54296875 C-6.32609016 0.13447143 -4.23452468 -0.26156496 0 0 Z " fill="#B584CE" transform="translate(652.83984375,186.51953125)"/>
</svg>
